<?xml version="1.0" encoding="UTF-8" standalone="no"?>
<!DOCTYPE svg PUBLIC "-//W3C//DTD SVG 20010904//EN" "http://www.w3.org/TR/2001/REC-SVG-20010904/DTD/svg10.dtd">
<svg version="1.0" xmlns="http://www.w3.org/2000/svg" width="128.000000pt" height="128.000000pt" viewBox="0 0 128.000000 128.000000" preserveAspectRatio="xMidYMid meet">
<metadata>
Created by potrace 1.14, written by Peter Selinger 2001-2017
</metadata>
<g transform="translate(0.000000,128.000000) scale(0.100000,-0.100000)" fill="#000000" stroke="none">
<path d="M0 1106 l0 -174 32 -13 c18 -7 50 -29 71 -48 33 -30 41 -33 62 -23 13 6 32 24 42 39 10 15 23 33 29 38 22 20 74 112 74 131 0 11 11 35 25 54 31 42 31 56 3 64 -21 7 -19 9 16 22 21 7 45 19 54 26 8 7 23 17 35 23 11 5 22 16 25 23 3 9 -48 12 -232 12 l-236 0 0 -174z m194 63 l31 0 -40 -15 c-24 -10 -61 -14 -92 -11 -58 4 -69 9 -58 28 6 8 26 10 68 5 33 -3 74 -6 91 -7z"/>
<path d="M603 1243 l6 -36 -27 26 c-31 30 -73 35 -92 12 -6 -8 -13 -37 -14 -64 -2 -41 -11 -62 -45 -111 -23 -33 -45 -75 -48 -94 -7 -43 -52 -88 -88 -88 -21 0 -31 -9 -47 -42 l-20 -42 21 -42 c12 -23 42 -73 67 -112 43 -67 61 -80 106 -78 18 1 17 24 -5 78 -6 14 -9 31 -8 37 2 13 -38 75 -51 81 -5 2 -8 12 -8 22 0 10 -6 21 -12 23 -8 3 -6 6 5 6 10 1 44 -12 77 -29 89 -45 142 -126 144 -220 1 -44 -2 -54 -14 -51 -13 3 -33 3 -81 -2 -15 -2 -57 -37 -43 -37 3 0 1 -7 -6 -15 -7 -8 -28 -15 -46 -15 -19 0 -34 -4 -34 -9 0 -5 -3 -16 -6 -25 -10 -25 61 -21 87 5 25 25 40 15 70 -43 11 -21 26 -38 34 -38 8 0 15 -5 15 -12 0 -6 2 -9 5 -6 6 6 -54 108 -69 120 -14 10 70 49 90 41 15 -6 16 -19 10 -131 -5 -82 -13 -141 -26 -173 -10 -27 -14 -52 -9 -55 16 -10 29 7 29 37 0 16 4 29 8 29 5 0 15 51 22 113 11 102 11 164 -4 372 -2 30 1 53 8 57 8 6 7 8 -1 8 -7 0 -13 5 -13 11 0 6 -10 19 -21 28 -32 26 -21 44 15 26 22 -12 32 -13 40 -4 8 9 8 10 -1 5 -7 -4 -13 2 -15 14 -2 12 -7 19 -11 18 -5 -2 -17 15 -28 36 -15 31 -16 42 -7 48 20 12 28 10 35 -9 4 -10 13 -28 21 -40 21 -34 50 -11 48 39 0 21 4 39 9 40 6 0 17 1 25 2 18 1 20 30 3 74 -6 17 -10 32 -8 32 3 0 -13 29 -35 65 -42 69 -42 91 0 27 14 -20 30 -42 35 -48 14 -15 72 -45 82 -42 4 1 34 -4 65 -11 32 -7 107 -14 166 -15 91 -2 114 -6 138 -23 16 -11 53 -23 82 -27 l52 -7 0 151 0 150 -341 0 -342 0 6 -37z m66 -223 c0 -24 0 -24 -14 -6 -8 11 -15 31 -15 45 0 24 1 24 15 5 8 -10 14 -30 14 -44z m-123 -47 c15 -21 18 -33 6 -33 -5 0 -14 11 -20 25 -13 29 -5 33 14 8z"/>
<path d="M739 1017 c6 -15 18 -41 26 -57 9 -17 19 -60 22 -96 5 -57 11 -73 42 -109 62 -75 81 -100 81 -110 0 -5 11 3 24 19 l23 30 84 -55 c110 -71 174 -120 189 -142 9 -15 8 -21 -7 -33 -23 -17 -10 -18 20 -2 12 7 24 14 26 15 2 1 -8 16 -23 33 -33 40 -33 45 4 60 43 18 37 34 -22 60 l-53 23 35 28 c19 16 38 29 42 29 4 0 8 5 8 12 0 6 -3 9 -6 5 -4 -3 -19 0 -35 8 -15 8 -33 15 -39 15 -18 0 -11 -20 11 -28 l20 -8 -21 -19 c-20 -18 -21 -18 -45 5 l-26 24 26 13 c26 14 33 32 13 34 -7 0 5 9 27 19 35 17 42 17 62 4 12 -7 25 -14 28 -14 3 0 5 36 5 79 0 67 -3 80 -17 85 -65 20 -219 56 -237 56 -12 0 -32 -7 -44 -16 -18 -12 -22 -25 -22 -65 0 -38 -4 -51 -17 -56 -10 -3 -28 -15 -40 -26 -29 -26 -29 -15 3 63 25 62 25 64 7 78 -13 9 -33 12 -67 7 -46 -6 -51 -4 -83 27 l-34 33 10 -28z m385 -241 c-4 -10 -15 -16 -27 -14 -32 5 -32 26 0 30 35 4 35 4 27 -16z m96 -167 c28 -10 30 -13 15 -22 -13 -7 -22 -4 -38 12 -25 24 -22 25 23 10z"/>
<path d="M0 570 c0 -187 4 -290 10 -290 6 0 10 13 10 30 0 27 2 29 30 24 25 -5 31 -2 40 17 10 24 10 23 7 -3 -2 -16 1 -32 7 -37 12 -10 16 -11 47 -11 19 0 21 -4 16 -40 -4 -30 -2 -40 9 -40 10 0 12 15 10 67 -3 37 0 76 6 87 9 16 6 23 -13 39 -15 12 -19 21 -12 24 7 2 9 11 6 19 -10 26 12 15 52 -26 21 -22 48 -40 59 -40 16 0 17 3 8 12 -7 7 -12 26 -12 44 0 46 -11 94 -22 94 -5 0 -7 -9 -3 -20 3 -11 2 -27 -3 -36 -6 -11 -11 8 -15 62 -11 154 -56 261 -120 287 -17 8 -51 17 -74 20 l-43 7 0 -290z m77 -202 c-3 -8 -6 -5 -6 6 -1 11 2 17 5 13 3 -3 4 -12 1 -19z"/>
<path d="M660 771 c0 -5 5 -13 10 -16 6 -3 10 -2 10 4 0 5 -4 13 -10 16 -5 3 -10 2 -10 -4z"/>
<path d="M335 551 c-3 -5 -1 -12 5 -16 5 -3 10 1 10 9 0 18 -6 21 -15 7z"/>
<path d="M785 530 c-23 -45 -19 -50 35 -50 57 0 136 -27 203 -70 51 -32 77 -38 77 -17 0 18 -34 49 -43 40 -4 -3 -7 -1 -7 6 0 7 -4 10 -8 7 -5 -3 -55 11 -113 30 -57 19 -112 33 -121 30 -23 -5 -24 22 -1 31 20 8 138 -22 173 -44 l25 -15 -20 20 c-23 23 -124 62 -160 62 -17 0 -29 -9 -40 -30z"/>
<path d="M1178 443 c-10 -2 -18 -9 -18 -14 0 -14 16 -11 30 6 7 8 11 14 9 14 -2 -1 -12 -3 -21 -6z"/>
<path d="M1135 310 c3 -5 8 -10 11 -10 2 0 4 5 4 10 0 6 -5 10 -11 10 -5 0 -7 -4 -4 -10z"/>
<path d="M1185 230 c-3 -5 -2 -10 4 -10 5 0 13 5 16 10 3 6 2 10 -4 10 -5 0 -13 -4 -16 -10z"/>
<path d="M0 111 l0 -111 85 0 c46 0 96 5 110 12 21 9 31 9 46 0 10 -7 33 -12 50 -12 27 0 30 2 19 15 -7 8 -18 15 -24 15 -6 0 -31 23 -55 50 -46 52 -86 77 -133 83 -15 1 -38 12 -50 23 -48 43 -48 43 -48 -75z"/>
<path d="M656 204 c-4 -12 1 -25 15 -38 l21 -21 -6 30 c-9 39 -22 51 -30 29z"/>
<path d="M1140 200 c-8 -5 -10 -10 -5 -10 6 0 17 5 25 10 8 5 11 10 5 10 -5 0 -17 -5 -25 -10z"/>
<path d="M830 180 c0 -5 5 -10 11 -10 5 0 7 5 4 10 -3 6 -8 10 -11 10 -2 0 -4 -4 -4 -10z"/>
<path d="M841 139 c8 -16 3 -49 -8 -49 -2 0 -17 7 -33 15 -35 18 -36 16 -10 -34 31 -62 45 -71 108 -71 55 0 56 0 33 16 -15 11 -19 19 -12 24 7 3 15 24 18 45 4 27 3 36 -5 31 -8 -5 -12 1 -12 14 0 12 -4 18 -10 15 -5 -3 -10 -3 -10 2 0 4 -16 8 -34 9 -30 0 -34 -2 -25 -17z"/>
<path d="M1080 80 c0 -5 7 -10 15 -10 8 0 15 5 15 10 0 6 -7 10 -15 10 -8 0 -15 -4 -15 -10z"/>
<path d="M1065 41 c-11 -19 8 -41 36 -41 20 0 27 4 23 14 -7 17 -52 38 -59 27z"/>
</g>
</svg>